<mxfile host="www.draw.io" modified="2019-11-22T06:04:51.003Z" agent="Mozilla/5.0 (Windows NT 10.0; Win64; x64) AppleWebKit/537.36 (KHTML, like Gecko) Chrome/76.0.3809.132 Safari/537.36" etag="u3EJEbND1M_MGcbQd4uB" version="12.2.9" type="github" pages="1">
  <diagram id="HfMefwT_UiIjBtf52L7Y" name="Page-1">
    <mxGraphModel dx="650" dy="401" grid="1" gridSize="10" guides="1" tooltips="1" connect="1" arrows="1" fold="1" page="1" pageScale="1" pageWidth="827" pageHeight="1169" background="none" math="0" shadow="0">
      <root>
        <mxCell id="0"/>
        <mxCell id="1" parent="0"/>
        <mxCell id="YsaOxoRD0oWJHUhISJ-A-18" value="" style="rounded=0;whiteSpace=wrap;html=1;strokeColor=#000000;fillColor=none;" parent="1" vertex="1">
          <mxGeometry x="340" y="200" width="120" height="170" as="geometry"/>
        </mxCell>
        <mxCell id="QALL7YyBJUHeHBPMZXpB-23" value="" style="rounded=0;whiteSpace=wrap;html=1;fillColor=none;" vertex="1" parent="1">
          <mxGeometry x="17" y="36" width="713" height="646" as="geometry"/>
        </mxCell>
        <mxCell id="YsaOxoRD0oWJHUhISJ-A-53" value="" style="rounded=0;whiteSpace=wrap;html=1;strokeColor=#000000;fillColor=none;" parent="1" vertex="1">
          <mxGeometry x="17" y="800" width="710" height="351" as="geometry"/>
        </mxCell>
        <mxCell id="YsaOxoRD0oWJHUhISJ-A-1" value="getter" style="rounded=0;whiteSpace=wrap;html=1;fillColor=#dae8fc;strokeColor=#6c8ebf;" parent="1" vertex="1">
          <mxGeometry x="340" y="250" width="120" height="60" as="geometry"/>
        </mxCell>
        <mxCell id="YsaOxoRD0oWJHUhISJ-A-2" value="setter" style="rounded=0;whiteSpace=wrap;html=1;fillColor=#f8cecc;strokeColor=#b85450;" parent="1" vertex="1">
          <mxGeometry x="340" y="310" width="120" height="60" as="geometry"/>
        </mxCell>
        <mxCell id="YsaOxoRD0oWJHUhISJ-A-10" style="edgeStyle=orthogonalEdgeStyle;rounded=0;orthogonalLoop=1;jettySize=auto;html=1;entryX=0.458;entryY=0.005;entryDx=0;entryDy=0;entryPerimeter=0;" parent="1" source="YsaOxoRD0oWJHUhISJ-A-3" edge="1">
          <mxGeometry relative="1" as="geometry">
            <mxPoint x="392" y="201" as="targetPoint"/>
          </mxGeometry>
        </mxCell>
        <mxCell id="YsaOxoRD0oWJHUhISJ-A-3" value="data" style="rounded=0;whiteSpace=wrap;html=1;" parent="1" vertex="1">
          <mxGeometry x="30" y="140" width="90" height="60" as="geometry"/>
        </mxCell>
        <mxCell id="YsaOxoRD0oWJHUhISJ-A-11" value="数据劫持 ---Object.defineProperty&amp;nbsp;&lt;br&gt;" style="text;html=1;resizable=0;points=[];autosize=1;align=left;verticalAlign=top;spacingTop=-4;" parent="1" vertex="1">
          <mxGeometry x="150" y="150" width="200" height="20" as="geometry"/>
        </mxCell>
        <mxCell id="YsaOxoRD0oWJHUhISJ-A-24" style="edgeStyle=orthogonalEdgeStyle;rounded=0;orthogonalLoop=1;jettySize=auto;html=1;entryX=0.5;entryY=1;entryDx=0;entryDy=0;" parent="1" source="YsaOxoRD0oWJHUhISJ-A-12" target="YsaOxoRD0oWJHUhISJ-A-23" edge="1">
          <mxGeometry relative="1" as="geometry"/>
        </mxCell>
        <mxCell id="YsaOxoRD0oWJHUhISJ-A-12" value="compiler" style="rounded=0;whiteSpace=wrap;html=1;strokeColor=#000000;fillColor=none;" parent="1" vertex="1">
          <mxGeometry x="30" y="400" width="90" height="60" as="geometry"/>
        </mxCell>
        <mxCell id="YsaOxoRD0oWJHUhISJ-A-39" style="edgeStyle=orthogonalEdgeStyle;rounded=0;orthogonalLoop=1;jettySize=auto;html=1;entryX=0.5;entryY=0;entryDx=0;entryDy=0;" parent="1" source="YsaOxoRD0oWJHUhISJ-A-18" target="YsaOxoRD0oWJHUhISJ-A-38" edge="1">
          <mxGeometry relative="1" as="geometry"/>
        </mxCell>
        <mxCell id="YsaOxoRD0oWJHUhISJ-A-28" style="edgeStyle=orthogonalEdgeStyle;rounded=0;orthogonalLoop=1;jettySize=auto;html=1;entryX=0.5;entryY=0;entryDx=0;entryDy=0;" parent="1" source="YsaOxoRD0oWJHUhISJ-A-21" target="YsaOxoRD0oWJHUhISJ-A-3" edge="1">
          <mxGeometry relative="1" as="geometry"/>
        </mxCell>
        <mxCell id="YsaOxoRD0oWJHUhISJ-A-21" value="new Vue" style="text;html=1;strokeColor=#9673a6;fillColor=#e1d5e7;align=center;verticalAlign=middle;whiteSpace=wrap;rounded=0;" parent="1" vertex="1">
          <mxGeometry x="46.5" y="50" width="57" height="20" as="geometry"/>
        </mxCell>
        <mxCell id="YsaOxoRD0oWJHUhISJ-A-32" style="edgeStyle=orthogonalEdgeStyle;rounded=0;orthogonalLoop=1;jettySize=auto;html=1;entryX=0;entryY=0.5;entryDx=0;entryDy=0;" parent="1" source="YsaOxoRD0oWJHUhISJ-A-23" target="YsaOxoRD0oWJHUhISJ-A-18" edge="1">
          <mxGeometry relative="1" as="geometry"/>
        </mxCell>
        <mxCell id="YsaOxoRD0oWJHUhISJ-A-23" value="new watch()" style="rounded=0;whiteSpace=wrap;html=1;strokeColor=#000000;fillColor=none;" parent="1" vertex="1">
          <mxGeometry x="30" y="255" width="90" height="60" as="geometry"/>
        </mxCell>
        <mxCell id="YsaOxoRD0oWJHUhISJ-A-26" value="依赖收集:watch 加入 dep数组" style="text;html=1;resizable=0;points=[];autosize=1;align=left;verticalAlign=top;spacingTop=-4;" parent="1" vertex="1">
          <mxGeometry x="130" y="265" width="170" height="20" as="geometry"/>
        </mxCell>
        <mxCell id="YsaOxoRD0oWJHUhISJ-A-27" value="new dep" style="text;html=1;strokeColor=#d6b656;fillColor=#fff2cc;align=center;verticalAlign=middle;whiteSpace=wrap;rounded=0;" parent="1" vertex="1">
          <mxGeometry x="371.5" y="200" width="57" height="20" as="geometry"/>
        </mxCell>
        <mxCell id="QALL7YyBJUHeHBPMZXpB-25" style="edgeStyle=orthogonalEdgeStyle;rounded=0;orthogonalLoop=1;jettySize=auto;html=1;" edge="1" parent="1" source="YsaOxoRD0oWJHUhISJ-A-30">
          <mxGeometry relative="1" as="geometry">
            <mxPoint x="450" y="350" as="targetPoint"/>
            <Array as="points">
              <mxPoint x="460" y="350"/>
            </Array>
          </mxGeometry>
        </mxCell>
        <mxCell id="YsaOxoRD0oWJHUhISJ-A-30" value="this.xxx = xxx" style="rounded=0;whiteSpace=wrap;html=1;strokeColor=#000000;fillColor=none;" parent="1" vertex="1">
          <mxGeometry x="570" y="329" width="95" height="60" as="geometry"/>
        </mxCell>
        <mxCell id="YsaOxoRD0oWJHUhISJ-A-41" style="edgeStyle=orthogonalEdgeStyle;rounded=0;orthogonalLoop=1;jettySize=auto;html=1;entryX=0.5;entryY=0;entryDx=0;entryDy=0;" parent="1" source="YsaOxoRD0oWJHUhISJ-A-38" target="YsaOxoRD0oWJHUhISJ-A-40" edge="1">
          <mxGeometry relative="1" as="geometry"/>
        </mxCell>
        <mxCell id="YsaOxoRD0oWJHUhISJ-A-38" value="通知dep数组里所有的watcher" style="rounded=0;whiteSpace=wrap;html=1;strokeColor=#000000;fillColor=none;" parent="1" vertex="1">
          <mxGeometry x="300" y="410" width="200" height="50" as="geometry"/>
        </mxCell>
        <mxCell id="YsaOxoRD0oWJHUhISJ-A-43" style="edgeStyle=orthogonalEdgeStyle;rounded=0;orthogonalLoop=1;jettySize=auto;html=1;entryX=0.5;entryY=0;entryDx=0;entryDy=0;" parent="1" source="YsaOxoRD0oWJHUhISJ-A-40" target="YsaOxoRD0oWJHUhISJ-A-42" edge="1">
          <mxGeometry relative="1" as="geometry"/>
        </mxCell>
        <mxCell id="YsaOxoRD0oWJHUhISJ-A-40" value="watcher将自身加入等待队列(queue)&lt;br&gt;见函数queueWatcher" style="rounded=0;whiteSpace=wrap;html=1;strokeColor=#000000;fillColor=none;align=center;" parent="1" vertex="1">
          <mxGeometry x="300" y="500" width="200" height="60" as="geometry"/>
        </mxCell>
        <mxCell id="YsaOxoRD0oWJHUhISJ-A-46" style="edgeStyle=orthogonalEdgeStyle;rounded=0;orthogonalLoop=1;jettySize=auto;html=1;entryX=0.5;entryY=0;entryDx=0;entryDy=0;" parent="1" source="YsaOxoRD0oWJHUhISJ-A-42" target="YsaOxoRD0oWJHUhISJ-A-44" edge="1">
          <mxGeometry relative="1" as="geometry"/>
        </mxCell>
        <mxCell id="YsaOxoRD0oWJHUhISJ-A-42" value="nextTick将任务加入待办队列&lt;br&gt;(callbacks)" style="rounded=0;whiteSpace=wrap;html=1;strokeColor=#9673a6;fillColor=#e1d5e7;" parent="1" vertex="1">
          <mxGeometry x="300" y="622" width="200" height="40" as="geometry"/>
        </mxCell>
        <mxCell id="YsaOxoRD0oWJHUhISJ-A-47" style="edgeStyle=orthogonalEdgeStyle;rounded=0;orthogonalLoop=1;jettySize=auto;html=1;entryX=0.5;entryY=0;entryDx=0;entryDy=0;" parent="1" source="YsaOxoRD0oWJHUhISJ-A-44" target="YsaOxoRD0oWJHUhISJ-A-45" edge="1">
          <mxGeometry relative="1" as="geometry"/>
        </mxCell>
        <mxCell id="YsaOxoRD0oWJHUhISJ-A-44" value="宏任务结束&lt;br&gt;微任务开始" style="ellipse;whiteSpace=wrap;html=1;aspect=fixed;strokeColor=#000000;fillColor=none;" parent="1" vertex="1">
          <mxGeometry x="360" y="710" width="80" height="80" as="geometry"/>
        </mxCell>
        <mxCell id="YsaOxoRD0oWJHUhISJ-A-50" style="edgeStyle=orthogonalEdgeStyle;rounded=0;orthogonalLoop=1;jettySize=auto;html=1;entryX=0.5;entryY=0;entryDx=0;entryDy=0;" parent="1" source="YsaOxoRD0oWJHUhISJ-A-45" target="YsaOxoRD0oWJHUhISJ-A-48" edge="1">
          <mxGeometry relative="1" as="geometry"/>
        </mxCell>
        <mxCell id="YsaOxoRD0oWJHUhISJ-A-45" value="&lt;br&gt;调用对应处理函数开始处理待办队列 (flushSchedulerQueue)" style="rounded=0;whiteSpace=wrap;html=1;strokeColor=#000000;fillColor=none;" parent="1" vertex="1">
          <mxGeometry x="295" y="832.5" width="210" height="70" as="geometry"/>
        </mxCell>
        <mxCell id="QALL7YyBJUHeHBPMZXpB-3" style="edgeStyle=orthogonalEdgeStyle;rounded=0;orthogonalLoop=1;jettySize=auto;html=1;" edge="1" parent="1" source="YsaOxoRD0oWJHUhISJ-A-48" target="QALL7YyBJUHeHBPMZXpB-1">
          <mxGeometry relative="1" as="geometry"/>
        </mxCell>
        <mxCell id="YsaOxoRD0oWJHUhISJ-A-48" value="获取到每个watcher,调用watcher.run(),进行数据计算" style="rounded=0;whiteSpace=wrap;html=1;strokeColor=#000000;fillColor=none;" parent="1" vertex="1">
          <mxGeometry x="290" y="930" width="220" height="60" as="geometry"/>
        </mxCell>
        <mxCell id="QALL7YyBJUHeHBPMZXpB-18" style="edgeStyle=orthogonalEdgeStyle;rounded=0;orthogonalLoop=1;jettySize=auto;html=1;entryX=0.455;entryY=0.167;entryDx=0;entryDy=0;entryPerimeter=0;" edge="1" parent="1" source="YsaOxoRD0oWJHUhISJ-A-49" target="QALL7YyBJUHeHBPMZXpB-16">
          <mxGeometry relative="1" as="geometry"/>
        </mxCell>
        <mxCell id="YsaOxoRD0oWJHUhISJ-A-49" value="渲染流程" style="ellipse;whiteSpace=wrap;html=1;aspect=fixed;strokeColor=#000000;fillColor=none;" parent="1" vertex="1">
          <mxGeometry x="360" y="1169" width="80" height="80" as="geometry"/>
        </mxCell>
        <mxCell id="YsaOxoRD0oWJHUhISJ-A-54" value="&lt;p style=&quot;line-height: 120% ; font-size: 22px&quot;&gt;&lt;br&gt;&lt;/p&gt;" style="text;html=1;strokeColor=none;fillColor=none;align=center;verticalAlign=middle;whiteSpace=wrap;rounded=0;" parent="1" vertex="1">
          <mxGeometry x="570" y="470" width="120" height="90" as="geometry"/>
        </mxCell>
        <mxCell id="YsaOxoRD0oWJHUhISJ-A-55" value="&lt;font style=&quot;font-size: 22px&quot;&gt;微任务&lt;/font&gt;" style="rhombus;whiteSpace=wrap;html=1;strokeColor=#d6b656;fillColor=none;" parent="1" vertex="1">
          <mxGeometry x="620" y="800" width="110" height="95" as="geometry"/>
        </mxCell>
        <mxCell id="YsaOxoRD0oWJHUhISJ-A-56" value="&lt;span style=&quot;font-size: 22px&quot;&gt;宏任务&lt;/span&gt;" style="rhombus;whiteSpace=wrap;html=1;strokeColor=#d6b656;fillColor=none;direction=south;" parent="1" vertex="1">
          <mxGeometry x="632" y="30" width="98" height="110" as="geometry"/>
        </mxCell>
        <mxCell id="QALL7YyBJUHeHBPMZXpB-2" value="" style="edgeStyle=orthogonalEdgeStyle;rounded=0;orthogonalLoop=1;jettySize=auto;html=1;" edge="1" parent="1" source="QALL7YyBJUHeHBPMZXpB-1" target="YsaOxoRD0oWJHUhISJ-A-49">
          <mxGeometry relative="1" as="geometry"/>
        </mxCell>
        <mxCell id="QALL7YyBJUHeHBPMZXpB-4" value="同步进行&lt;br&gt;js任务暂停,渲染dom" style="text;html=1;align=center;verticalAlign=middle;resizable=0;points=[];;labelBackgroundColor=#ffffff;" vertex="1" connectable="0" parent="QALL7YyBJUHeHBPMZXpB-2">
          <mxGeometry x="-0.2658" y="2" relative="1" as="geometry">
            <mxPoint as="offset"/>
          </mxGeometry>
        </mxCell>
        <mxCell id="QALL7YyBJUHeHBPMZXpB-1" value="watch.run()调用&lt;br&gt;watch.get()=&amp;gt;&lt;br&gt;watch.getter()=&amp;gt;&lt;br&gt;updateComponent()" style="rounded=0;whiteSpace=wrap;html=1;" vertex="1" parent="1">
          <mxGeometry x="290" y="1030" width="220" height="60" as="geometry"/>
        </mxCell>
        <mxCell id="QALL7YyBJUHeHBPMZXpB-7" style="edgeStyle=orthogonalEdgeStyle;rounded=0;orthogonalLoop=1;jettySize=auto;html=1;" edge="1" parent="1" source="QALL7YyBJUHeHBPMZXpB-5" target="YsaOxoRD0oWJHUhISJ-A-42">
          <mxGeometry relative="1" as="geometry"/>
        </mxCell>
        <mxCell id="QALL7YyBJUHeHBPMZXpB-12" value="cb" style="text;html=1;align=center;verticalAlign=middle;resizable=0;points=[];;labelBackgroundColor=#ffffff;" vertex="1" connectable="0" parent="QALL7YyBJUHeHBPMZXpB-7">
          <mxGeometry x="-0.2232" y="-3" relative="1" as="geometry">
            <mxPoint x="-40.5" y="-3" as="offset"/>
          </mxGeometry>
        </mxCell>
        <mxCell id="QALL7YyBJUHeHBPMZXpB-15" style="edgeStyle=orthogonalEdgeStyle;rounded=0;orthogonalLoop=1;jettySize=auto;html=1;entryX=0;entryY=0.5;entryDx=0;entryDy=0;" edge="1" parent="1" source="QALL7YyBJUHeHBPMZXpB-5" target="QALL7YyBJUHeHBPMZXpB-16">
          <mxGeometry relative="1" as="geometry"/>
        </mxCell>
        <mxCell id="QALL7YyBJUHeHBPMZXpB-5" value="手动调用this.$nextTick" style="rounded=0;whiteSpace=wrap;html=1;" vertex="1" parent="1">
          <mxGeometry x="30" y="612" width="120" height="60" as="geometry"/>
        </mxCell>
        <mxCell id="QALL7YyBJUHeHBPMZXpB-9" value="flushSchedulerQueue" style="text;html=1;align=center;verticalAlign=middle;resizable=0;points=[];;autosize=1;" vertex="1" parent="1">
          <mxGeometry x="335" y="586" width="130" height="20" as="geometry"/>
        </mxCell>
        <mxCell id="QALL7YyBJUHeHBPMZXpB-16" value="触发手动调用的$nextTick" style="rounded=0;whiteSpace=wrap;html=1;" vertex="1" parent="1">
          <mxGeometry x="300" y="1320" width="220" height="60" as="geometry"/>
        </mxCell>
        <mxCell id="QALL7YyBJUHeHBPMZXpB-20" value="渲染结束,继续执行js,查看微任务队列,继续微任务" style="text;html=1;align=center;verticalAlign=middle;resizable=0;points=[];;autosize=1;" vertex="1" parent="1">
          <mxGeometry x="275" y="1295" width="270" height="20" as="geometry"/>
        </mxCell>
        <mxCell id="QALL7YyBJUHeHBPMZXpB-28" value="" style="rounded=0;whiteSpace=wrap;html=1;fillColor=none;" vertex="1" parent="1">
          <mxGeometry x="17" y="1295" width="713" height="116" as="geometry"/>
        </mxCell>
        <mxCell id="QALL7YyBJUHeHBPMZXpB-29" value="&lt;font style=&quot;font-size: 22px&quot;&gt;微任务&lt;/font&gt;" style="rhombus;whiteSpace=wrap;html=1;strokeColor=#d6b656;fillColor=none;" vertex="1" parent="1">
          <mxGeometry x="620" y="1294.5" width="110" height="95" as="geometry"/>
        </mxCell>
      </root>
    </mxGraphModel>
  </diagram>
</mxfile>
